<svg width="200" height="200" viewBox="0 0 200 200" xmlns="http://www.w3.org/2000/svg">
  <!-- Black background -->
  <rect width="200" height="200" fill="black"/>
  <defs>
    <!-- Background gradient -->
    <radialGradient id="bgGradient" cx="0.3" cy="0.3" r="0.8">
      <stop offset="0%" style="stop-color:#ffffff;stop-opacity:1" />
      <stop offset="100%" style="stop-color:#f8f9fa;stop-opacity:1" />
    </radialGradient>
    
    <!-- GitHub icon gradient - now white -->
    <linearGradient id="githubGradient" x1="0%" y1="0%" x2="100%" y2="100%">
      <stop offset="0%" style="stop-color:#ffffff;stop-opacity:1" />
      <stop offset="100%" style="stop-color:#f8f9fa;stop-opacity:1" />
    </linearGradient>
    
    <!-- Shadow filter -->
    <filter id="shadow" x="-50%" y="-50%" width="200%" height="200%">
      <feDropShadow dx="0" dy="4" stdDeviation="8" flood-color="#000000" flood-opacity="0.1"/>
    </filter>
    
    <!-- Inner shadow -->
    <filter id="innerShadow" x="-50%" y="-50%" width="200%" height="200%">
      <feOffset dx="0" dy="2"/>
      <feGaussianBlur stdDeviation="3" result="offset-blur"/>
      <feFlood flood-color="#000000" flood-opacity="0.05"/>
      <feComposite in2="offset-blur" operator="in"/>
    </filter>
  </defs>
  
  <!-- Black circular background behind the cat -->
  <circle cx="100" cy="100" r="90" fill="black" filter="url(#shadow)" stroke="#333" stroke-width="1"/>
  
  <!-- GitHub icon -->
  <g transform="translate(100, 100)">
    <path d="M-24,-24 C-35.05,-24 -44,-14.95 -44,3.95 C-44,15.35 -36.55,24.95 -26.83,28.27 C-25.63,28.47 -25.17,27.77 -25.17,27.17 C-25.17,26.63 -25.19,25.13 -25.2,23.11 C-32.42,24.59 -33.84,19.85 -33.84,19.85 C-34.9,17.07 -36.42,16.37 -36.42,16.37 C-38.54,14.83 -36.24,14.86 -36.24,14.86 C-33.86,15.02 -32.58,17.37 -32.58,17.37 C-30.5,21.22 -27.07,20.19 -25.13,19.41 C-24.92,17.91 -24.33,16.89 -23.68,16.13 C-29.26,15.36 -35.13,13.05 -35.13,2.47 C-35.13,0.09 -34.25,-1.89 -32.54,-3.37 C-32.78,-4.14 -33.62,-7.04 -32.31,-11.08 C-32.31,-11.08 -30.35,-11.69 -25.22,-8.27 C-23.35,-8.84 -21.34,-9.12 -19.34,-9.13 C-17.34,-9.12 -15.33,-8.84 -13.46,-8.27 C-8.33,-11.69 -6.37,-11.08 -6.37,-11.08 C-5.06,-7.04 -5.9,-4.14 -6.14,-3.37 C-4.43,-1.89 -3.55,0.09 -3.55,2.47 C-3.55,13.07 -9.43,15.35 -15.03,16.11 C-14.17,16.81 -13.48,18.19 -13.48,20.29 C-13.48,23.29 -13.51,25.71 -13.51,26.41 C-13.51,27.01 -13.06,27.72 -11.84,27.51 C-2.11,24.18 5.34,14.58 5.34,3.18 C5.34,-14.82 -3.61,-23.87 -14.66,-23.87 L-24,-24 Z" 
          fill="url(#githubGradient)" 
          filter="url(#shadow)"
          transform="scale(1.5)"/>
  </g>
</svg>